mtllib materials.mtl
v -0.05365697 0.7399638 -0.4460554
v 0.2350277 0.8205187 -0.1445743
v 0.214811 0.9568641 -0.1116939
v -0.1219877 0.8628831 -0.4634217
v 0.1470813 1.056312 -0.03684312
v -0.2249394 0.9525027 -0.4253542
v 0.04998681 1.092216 0.05992174
v -0.3349261 0.9848094 -0.3420531
v -0.0504562 1.054955 0.1526724
v -0.4224769 0.9511461 -0.2358387
v -0.1273341 0.954514 0.2165568
v -0.4641328 0.8605332 -0.1351712
v -0.1600474 0.8178053 0.2344568
v -0.4487321 0.7372503 -0.06702423
v -0.1398308 0.6814601 0.2015762
v -0.3804013 0.6143308 -0.04965788
v -0.07210115 0.5820119 0.1267256
v -0.2774497 0.5247111 -0.0877254
v 0.02499339 0.546108 0.02996087
v -0.167463 0.4924047 -0.1710265
v 0.1254364 0.5833687 -0.06278992
v -0.07991216 0.5260679 -0.2772409
v 0.2023143 0.68381 -0.1266742
v -0.03825623 0.6166809 -0.3779085
v 0.5136669 0.6815798 0.1448648
v 0.5398902 0.7947688 0.2259852
v 0.5061568 0.8772652 0.3361499
v 0.4215058 0.9069643 0.4458405
v 0.3086192 0.8759084 0.5256655
v 0.1977451 0.792419 0.5542357
v 0.1185918 0.6788666 0.523896
v 0.09236857 0.5656776 0.4427755
v 0.1261019 0.4831814 0.3326108
v 0.2107529 0.4534822 0.2229203
v 0.3236394 0.4845381 0.1430954
v 0.4345137 0.5680277 0.114525
v 0.7075994 0.3603759 0.3447069
v 0.7661448 0.4200306 0.4591343
v 0.7560728 0.4633374 0.5936815
v 0.6800826 0.4786923 0.7122967
v 0.5585353 0.4619808 0.7831969
v 0.4239997 0.4176807 0.7873847
v 0.3125243 0.3576624 0.723738
v 0.253979 0.2980077 0.6093106
v 0.2640509 0.2547009 0.4747635
v 0.3400413 0.2393461 0.3561484
v 0.4615884 0.2560576 0.2852479
v 0.5961242 0.3003576 0.2810602
v 0.7648613 -0.0570271 0.4014046
v 0.8329504 -0.06693947 0.5252815
v 0.8298649 -0.07455933 0.6667464
v 0.7564317 -0.07784498 0.7878935
v 0.6323273 -0.07591605 0.8562618
v 0.4908053 -0.06928933 0.8535321
v 0.3697863 -0.05974042 0.7804357
v 0.3016973 -0.04982805 0.6565588
v 0.3047828 -0.04220819 0.515094
v 0.3782158 -0.03892255 0.3939468
v 0.5023203 -0.04085147 0.3255785
v 0.6438425 -0.0474782 0.3283081
v 0.6701093 -0.4587861 0.2997657
v 0.7224063 -0.5356583 0.4067029
v 0.7077603 -0.5922962 0.5357668
v 0.6300957 -0.6135237 0.652375
v 0.5102227 -0.5936529 0.7252824
v 0.3802612 -0.5380082 0.7349534
v 0.2750342 -0.4614995 0.6787968
v 0.2227373 -0.3846272 0.5718596
v 0.2373833 -0.3279893 0.4427958
v 0.3150479 -0.3067617 0.3261875
v 0.4349208 -0.3266326 0.2532802
v 0.5648825 -0.3822774 0.2436091
v 0.448732 -0.7372503 0.06702423
v 0.4641327 -0.8605332 0.1351711
v 0.4224768 -0.9511461 0.2358387
v 0.3349259 -0.9848094 0.3420531
v 0.2249393 -0.9525028 0.4253542
v 0.1219876 -0.8628831 0.4634216
v 0.05365688 -0.7399637 0.4460553
v 0.03825614 -0.6166807 0.3779083
v 0.0799121 -0.5260679 0.2772409
v 0.167463 -0.4924047 0.1710265
v 0.2774496 -0.5247112 0.0877254
v 0.3804013 -0.614331 0.04965782
v 0.1600473 -0.8178053 -0.2344569
v 0.1273339 -0.9545141 -0.2165568
v 0.05045602 -1.054955 -0.1526726
v -0.04998705 -1.092216 -0.0599218
v -0.1470816 -1.056312 0.03684294
v -0.2148112 -0.956864 0.1116937
v -0.2350278 -0.8205187 0.1445742
v -0.2023144 -0.6838099 0.1266742
v -0.1254366 -0.5833686 0.0627898
v -0.02499351 -0.546108 -0.02996087
v 0.07210097 -0.5820119 -0.1267257
v 0.1398307 -0.6814601 -0.2015765
v -0.1185918 -0.6788666 -0.5238959
v -0.1977451 -0.7924188 -0.5542357
v -0.3086193 -0.8759084 -0.5256654
v -0.4215059 -0.9069643 -0.4458405
v -0.5061569 -0.8772651 -0.3361499
v -0.5398902 -0.7947688 -0.2259852
v -0.513667 -0.6815799 -0.1448648
v -0.4345137 -0.5680276 -0.114525
v -0.3236395 -0.4845381 -0.1430954
v -0.2107529 -0.4534822 -0.2229202
v -0.126102 -0.4831814 -0.3326108
v -0.09236863 -0.5656778 -0.4427757
v -0.3125244 -0.3576626 -0.723738
v -0.4239997 -0.4176809 -0.7873848
v -0.5585353 -0.4619808 -0.783197
v -0.6800827 -0.4786923 -0.7122966
v -0.756073 -0.4633375 -0.5936814
v -0.7661449 -0.4200307 -0.4591342
v -0.7075995 -0.3603759 -0.3447069
v -0.5961241 -0.3003576 -0.2810601
v -0.4615885 -0.2560576 -0.2852479
v -0.3400413 -0.2393461 -0.3561484
v -0.264051 -0.2547009 -0.4747635
v -0.2539791 -0.2980077 -0.6093107
v -0.3697863 0.0597403 -0.7804357
v -0.4908053 0.06928921 -0.8535321
v -0.6323274 0.07591593 -0.8562618
v -0.7564318 0.07784486 -0.7878935
v -0.829865 0.07455921 -0.6667463
v -0.8329504 0.06693935 -0.5252815
v -0.7648615 0.05702698 -0.4014046
v -0.6438423 0.04747808 -0.3283081
v -0.5023204 0.04085135 -0.3255785
v -0.3782159 0.03892243 -0.3939468
v -0.3047828 0.04220808 -0.515094
v -0.3016974 0.04982793 -0.6565588
v -0.2750342 0.4614997 -0.6787967
v -0.3802612 0.5380085 -0.7349533
v -0.5102227 0.5936532 -0.7252822
v -0.6300957 0.613524 -0.6523749
v -0.7077602 0.5922964 -0.5357667
v -0.7224063 0.5356586 -0.4067028
v -0.6701093 0.4587864 -0.2997656
v -0.5648823 0.3822776 -0.243609
v -0.4349208 0.3266329 -0.2532801
v -0.3150479 0.306762 -0.3261875
v -0.2373833 0.3279896 -0.4427956
v -0.2227373 0.3846276 -0.5718597
vn 0.7215984 0.004955977 -0.6922942
vn 0.4719883 0.4539766 -0.755733
vn 0.09590927 0.7813546 -0.6166737
vn -0.3058685 0.8993692 -0.3123772
vn -0.6256891 0.7763987 0.07562053
vn -0.7778568 0.4453926 0.4433558
vn -0.7215984 -0.004955977 0.6922942
vn -0.4719881 -0.4539768 0.755733
vn -0.09590923 -0.7813546 0.6166737
vn 0.3058685 -0.8993692 0.3123772
vn 0.625689 -0.7763987 -0.07562043
vn 0.7778568 -0.4453924 -0.443356
vn 0.7215984 0.004955977 -0.6922942
vn 0.6477476 0.5030208 -0.5721829
vn 0.4003333 0.8663016 -0.2987556
vn 0.04565005 0.9974576 0.05472299
vn -0.3212651 0.8613456 0.3935387
vn -0.6020975 0.4944368 0.6269059
vn -0.7215984 -0.004955977 0.6922942
vn -0.6477475 -0.5030211 0.5721828
vn -0.4003333 -0.8663017 0.2987556
vn -0.04565011 -0.9974576 -0.05472301
vn 0.321265 -0.8613456 -0.3935386
vn 0.6020976 -0.4944365 -0.626906
vn 0.7215984 0.004955977 -0.6922942
vn 0.8173909 0.418431 -0.3959643
vn 0.6941642 0.7197878 0.006463978
vn 0.3849368 0.8282779 0.4071603
vn -0.02743418 0.7148317 0.6987583
vn -0.4324541 0.409847 0.8031245
vn -0.7215984 -0.004955977 0.6922942
vn -0.817391 -0.4184312 0.3959641
vn -0.6941642 -0.7197878 -0.006464028
vn -0.3849368 -0.8282779 -0.4071603
vn 0.0274341 -0.7148318 -0.6987582
vn 0.4324544 -0.4098468 -0.8031245
vn 0.7215984 0.004955977 -0.6922942
vn 0.9354625 0.2228729 -0.2742948
vn 0.8986703 0.3810713 0.2172018
vn 0.6210799 0.4371619 0.6504992
vn 0.1770718 0.3761153 0.909496
vn -0.3143826 0.2142889 0.924794
vn -0.7215984 -0.004955977 0.6922942
vn -0.9354626 -0.222873 0.2742946
vn -0.8986702 -0.3810713 -0.2172018
vn -0.62108 -0.4371619 -0.6504992
vn -0.1770719 -0.3761153 -0.9094959
vn 0.3143828 -0.2142888 -0.924794
vn 0.7215984 0.004955977 -0.6922942
vn 0.9703252 -0.03125363 -0.2397757
vn 0.9590541 -0.05908889 0.2769906
vn 0.6908053 -0.07109126 0.7195375
vn 0.2374557 -0.06404487 0.9692849
vn -0.2795199 -0.03983764 0.9593131
vn -0.7215984 -0.004955977 0.6922942
vn -0.9703253 0.03125374 0.2397756
vn -0.9590541 0.05908889 -0.2769907
vn -0.6908053 0.07109126 -0.7195375
vn -0.2374558 0.06404487 -0.9692848
vn 0.2795202 0.03983763 -0.959313
vn 0.7215984 0.004955977 -0.6922942
vn 0.9126375 -0.2758558 -0.3016563
vn 0.8591361 -0.4827523 0.1698103
vn 0.5754299 -0.5602957 0.5957763
vn 0.1375377 -0.4877082 0.8621045
vn -0.3372076 -0.2844398 0.8974325
vn -0.7215984 -0.004955977 0.6922942
vn -0.9126376 0.2758558 0.3016562
vn -0.8591361 0.4827523 -0.1698103
vn -0.5754299 0.5602957 -0.5957763
vn -0.1375378 0.4877083 -0.8621045
vn 0.3372079 0.2844397 -0.8974324
vn 0.7215984 0.004955977 -0.6922942
vn 0.7778568 -0.4453926 -0.4433558
vn 0.625689 -0.7763987 -0.07562052
vn 0.3058684 -0.8993693 0.3123772
vn -0.09590938 -0.7813547 0.6166738
vn -0.4719883 -0.4539766 0.755733
vn -0.7215984 -0.004955977 0.6922942
vn -0.7778568 0.4453928 0.4433556
vn -0.625689 0.7763987 0.07562048
vn -0.3058684 0.8993693 -0.3123772
vn 0.09590928 0.7813547 -0.6166736
vn 0.4719885 0.4539764 -0.755733
vn 0.7215984 0.004955977 -0.6922942
vn 0.6020974 -0.4944369 -0.6269059
vn 0.321265 -0.8613456 -0.3935387
vn -0.04565035 -0.9974576 -0.05472318
vn -0.4003334 -0.8663015 0.2987556
vn -0.6477476 -0.5030209 0.5721828
vn -0.7215984 -0.004955977 0.6922942
vn -0.6020973 0.4944369 0.626906
vn -0.3212649 0.8613456 0.3935387
vn 0.04565033 0.9974576 0.05472321
vn 0.4003333 0.8663017 -0.2987555
vn 0.6477478 0.5030206 -0.572183
vn 0.7215984 0.004955977 -0.6922942
vn 0.4324541 -0.409847 -0.8031245
vn 0.02743411 -0.7148317 -0.6987582
vn -0.3849369 -0.8282779 -0.4071603
vn -0.6941643 -0.7197877 -0.006463953
vn -0.8173909 -0.418431 0.3959643
vn -0.7215984 -0.004955977 0.6922942
vn -0.4324539 0.4098471 0.8031246
vn -0.02743406 0.7148318 0.6987582
vn 0.3849369 0.8282779 0.4071603
vn 0.6941643 0.7197878 0.006464074
vn 0.817391 0.4184308 -0.3959645
vn 0.7215984 0.004955977 -0.6922942
vn 0.3143826 -0.2142889 -0.924794
vn -0.1770719 -0.3761154 -0.9094959
vn -0.62108 -0.4371619 -0.6504992
vn -0.8986703 -0.3810713 -0.2172017
vn -0.9354625 -0.222873 0.2742948
vn -0.7215984 -0.004955977 0.6922942
vn -0.3143823 0.2142891 0.9247941
vn 0.1770719 0.3761154 0.9094959
vn 0.62108 0.4371619 0.6504992
vn 0.8986702 0.3810713 0.2172018
vn 0.9354625 0.2228729 -0.2742951
vn 0.7215984 0.004955977 -0.6922942
vn 0.2795199 0.03983764 -0.9593131
vn -0.2374557 0.06404476 -0.9692848
vn -0.6908054 0.07109116 -0.7195374
vn -0.9590541 0.05908878 -0.2769905
vn -0.9703252 0.03125363 0.2397757
vn -0.7215984 -0.004955977 0.6922942
vn -0.2795196 -0.03983753 0.9593132
vn 0.2374558 -0.06404476 0.9692849
vn 0.6908053 -0.07109116 0.7195375
vn 0.9590542 -0.05908879 0.2769907
vn 0.9703251 -0.03125363 -0.239776
vn 0.7215984 0.004955977 -0.6922942
vn 0.3372077 0.2844399 -0.8974325
vn -0.1375377 0.4877086 -0.8621044
vn -0.5754299 0.5602959 -0.5957761
vn -0.8591361 0.4827524 -0.16981
vn -0.9126375 0.2758561 0.3016563
vn -0.7215984 -0.004955977 0.6922942
vn -0.3372074 -0.2844401 0.8974325
vn 0.1375377 -0.4877086 0.8621043
vn 0.5754298 -0.5602959 0.5957761
vn 0.859136 -0.4827526 0.1698102
vn 0.9126374 -0.2758557 -0.3016566
usemtl mat2
f 4//1 3//1 2//1 1//1
f 6//2 5//2 3//2 4//2
f 8//3 7//3 5//3 6//3
f 10//4 9//4 7//4 8//4
f 12//5 11//5 9//5 10//5
f 14//6 13//6 11//6 12//6
f 16//7 15//7 13//7 14//7
f 18//8 17//8 15//8 16//8
f 20//9 19//9 17//9 18//9
f 22//10 21//10 19//10 20//10
f 24//11 23//11 21//11 22//11
f 1//12 2//12 23//12 24//12
f 3//13 26//13 25//13 2//13
f 5//14 27//14 26//14 3//14
f 7//15 28//15 27//15 5//15
f 9//16 29//16 28//16 7//16
f 11//17 30//17 29//17 9//17
f 13//18 31//18 30//18 11//18
f 15//19 32//19 31//19 13//19
f 17//20 33//20 32//20 15//20
f 19//21 34//21 33//21 17//21
f 21//22 35//22 34//22 19//22
f 23//23 36//23 35//23 21//23
f 2//24 25//24 36//24 23//24
f 26//25 38//25 37//25 25//25
f 27//26 39//26 38//26 26//26
f 28//27 40//27 39//27 27//27
f 29//28 41//28 40//28 28//28
f 30//29 42//29 41//29 29//29
f 31//30 43//30 42//30 30//30
f 32//31 44//31 43//31 31//31
f 33//32 45//32 44//32 32//32
f 34//33 46//33 45//33 33//33
f 35//34 47//34 46//34 34//34
f 36//35 48//35 47//35 35//35
f 25//36 37//36 48//36 36//36
f 38//37 50//37 49//37 37//37
f 39//38 51//38 50//38 38//38
f 40//39 52//39 51//39 39//39
f 41//40 53//40 52//40 40//40
f 42//41 54//41 53//41 41//41
f 43//42 55//42 54//42 42//42
f 44//43 56//43 55//43 43//43
f 45//44 57//44 56//44 44//44
f 46//45 58//45 57//45 45//45
f 47//46 59//46 58//46 46//46
f 48//47 60//47 59//47 47//47
f 37//48 49//48 60//48 48//48
f 50//49 62//49 61//49 49//49
f 51//50 63//50 62//50 50//50
f 52//51 64//51 63//51 51//51
f 53//52 65//52 64//52 52//52
f 54//53 66//53 65//53 53//53
f 55//54 67//54 66//54 54//54
f 56//55 68//55 67//55 55//55
f 57//56 69//56 68//56 56//56
f 58//57 70//57 69//57 57//57
f 59//58 71//58 70//58 58//58
f 60//59 72//59 71//59 59//59
f 49//60 61//60 72//60 60//60
f 62//61 74//61 73//61 61//61
f 63//62 75//62 74//62 62//62
f 64//63 76//63 75//63 63//63
f 65//64 77//64 76//64 64//64
f 66//65 78//65 77//65 65//65
f 67//66 79//66 78//66 66//66
f 68//67 80//67 79//67 67//67
f 69//68 81//68 80//68 68//68
f 70//69 82//69 81//69 69//69
f 71//70 83//70 82//70 70//70
f 72//71 84//71 83//71 71//71
f 61//72 73//72 84//72 72//72
f 74//73 86//73 85//73 73//73
f 75//74 87//74 86//74 74//74
f 76//75 88//75 87//75 75//75
f 77//76 89//76 88//76 76//76
f 78//77 90//77 89//77 77//77
f 79//78 91//78 90//78 78//78
f 80//79 92//79 91//79 79//79
f 81//80 93//80 92//80 80//80
f 82//81 94//81 93//81 81//81
f 83//82 95//82 94//82 82//82
f 84//83 96//83 95//83 83//83
f 73//84 85//84 96//84 84//84
f 86//85 98//85 97//85 85//85
f 87//86 99//86 98//86 86//86
f 88//87 100//87 99//87 87//87
f 89//88 101//88 100//88 88//88
f 90//89 102//89 101//89 89//89
f 91//90 103//90 102//90 90//90
f 92//91 104//91 103//91 91//91
f 93//92 105//92 104//92 92//92
f 94//93 106//93 105//93 93//93
f 95//94 107//94 106//94 94//94
f 96//95 108//95 107//95 95//95
f 85//96 97//96 108//96 96//96
f 98//97 110//97 109//97 97//97
f 99//98 111//98 110//98 98//98
f 100//99 112//99 111//99 99//99
f 101//100 113//100 112//100 100//100
f 102//101 114//101 113//101 101//101
f 103//102 115//102 114//102 102//102
f 104//103 116//103 115//103 103//103
f 105//104 117//104 116//104 104//104
f 106//105 118//105 117//105 105//105
f 107//106 119//106 118//106 106//106
f 108//107 120//107 119//107 107//107
f 97//108 109//108 120//108 108//108
f 110//109 122//109 121//109 109//109
f 111//110 123//110 122//110 110//110
f 112//111 124//111 123//111 111//111
f 113//112 125//112 124//112 112//112
f 114//113 126//113 125//113 113//113
f 115//114 127//114 126//114 114//114
f 116//115 128//115 127//115 115//115
f 117//116 129//116 128//116 116//116
f 118//117 130//117 129//117 117//117
f 119//118 131//118 130//118 118//118
f 120//119 132//119 131//119 119//119
f 109//120 121//120 132//120 120//120
f 122//121 134//121 133//121 121//121
f 123//122 135//122 134//122 122//122
f 124//123 136//123 135//123 123//123
f 125//124 137//124 136//124 124//124
f 126//125 138//125 137//125 125//125
f 127//126 139//126 138//126 126//126
f 128//127 140//127 139//127 127//127
f 129//128 141//128 140//128 128//128
f 130//129 142//129 141//129 129//129
f 131//130 143//130 142//130 130//130
f 132//131 144//131 143//131 131//131
f 121//132 133//132 144//132 132//132
f 134//133 4//133 1//133 133//133
f 135//134 6//134 4//134 134//134
f 136//135 8//135 6//135 135//135
f 137//136 10//136 8//136 136//136
f 138//137 12//137 10//137 137//137
f 139//138 14//138 12//138 138//138
f 140//139 16//139 14//139 139//139
f 141//140 18//140 16//140 140//140
f 142//141 20//141 18//141 141//141
f 143//142 22//142 20//142 142//142
f 144//143 24//143 22//143 143//143
f 133//144 1//144 24//144 144//144
